<?xml version="1.0" standalone="no"?>
<!DOCTYPE svg PUBLIC "-//W3C//DTD SVG 20010904//EN"
 "http://www.w3.org/TR/2001/REC-SVG-20010904/DTD/svg10.dtd">
<svg version="1.0" xmlns="http://www.w3.org/2000/svg"
 width="1000.000000pt" height="1000.000000pt" viewBox="0 0 1000.000000 1000.000000"
 preserveAspectRatio="xMidYMid meet">
<metadata>
Created by potrace 1.11, written by Peter Selinger 2001-2013
</metadata>
<g transform="translate(0.000000,1000.000000) scale(0.100000,-0.100000)"
fill="#000000" stroke="none">
<path d="M4748 9995 c-2 -2 -50 -6 -108 -10 -153 -11 -160 -11 -215 -19 -27
-4 -68 -9 -90 -12 -357 -43 -801 -159 -1165 -304 -266 -106 -446 -194 -705
-343 -64 -37 -346 -219 -370 -239 -5 -5 -53 -40 -105 -79 -678 -507 -1228
-1203 -1568 -1984 -229 -527 -369 -1093 -409 -1655 -14 -207 -8 -633 12 -830
2 -25 7 -70 10 -100 5 -50 15 -119 30 -225 3 -22 8 -46 10 -53 3 -7 10 -43 15
-80 46 -287 209 -801 358 -1126 153 -335 393 -735 586 -980 447 -564 905 -963
1506 -1309 151 -87 426 -218 595 -283 50 -19 110 -43 135 -53 184 -76 701
-213 886 -236 11 -2 45 -8 75 -13 55 -11 95 -16 209 -28 36 -3 68 -8 71 -10
15 -8 280 -18 494 -18 249 0 447 10 575 29 19 3 55 7 80 10 56 6 108 14 140
20 14 3 65 12 114 21 279 48 680 166 971 284 143 59 439 202 575 280 81 46
332 201 340 209 3 4 34 26 70 50 65 44 293 219 340 261 14 12 47 40 74 63 115
98 364 344 456 451 23 27 49 56 57 65 25 24 151 185 230 291 405 549 691 1177
848 1868 19 84 37 167 39 185 3 18 7 44 10 57 3 14 8 41 11 60 2 19 7 46 9 60
3 14 8 52 11 85 3 33 8 74 10 90 23 180 29 307 29 570 0 216 -6 352 -19 470
-3 22 -7 60 -9 85 -5 46 -23 171 -32 225 -4 27 -14 82 -30 170 -23 133 -98
415 -156 595 -38 116 -143 387 -193 495 -58 126 -183 373 -195 385 -3 3 -18
30 -34 60 -67 125 -244 391 -370 554 -51 66 -224 274 -261 312 -138 147 -308
313 -414 404 -35 30 -69 60 -75 65 -18 16 -99 81 -151 121 -27 20 -54 41 -59
46 -64 53 -373 258 -476 315 -30 17 -86 48 -125 70 -244 135 -559 271 -850
366 -170 55 -476 135 -590 153 -21 3 -47 8 -59 10 -131 26 -344 55 -516 70
-68 6 -627 14 -632 9z"/>
</g>
</svg>
